<svg preserveAspectRatio="none" overflow="visible" style="display: block;" width="133.333" height="133.333" viewBox="0 0 133.333 133.333" fill="none" xmlns="http://www.w3.org/2000/svg">
<g id="Frame 30">
<path id="Vector" d="M108.333 2.08398C111.342 2.08398 114.322 2.67674 117.103 3.82841C119.883 4.98008 122.41 6.66811 124.538 8.79612C126.666 10.9241 128.354 13.4504 129.505 16.2308C130.657 19.0112 131.25 21.9912 131.25 25.0007V108.334C131.25 114.17 129.024 119.786 125.026 124.036C121.027 128.287 115.558 130.852 109.733 131.209L108.333 131.251H24.9997C21.9902 131.251 19.0102 130.658 16.2298 129.506C13.4495 128.355 10.9232 126.667 8.79515 124.539C6.66714 122.411 4.97911 119.884 3.82744 117.104C2.67577 114.323 2.08301 111.343 2.08301 108.334V25.0007C2.08301 21.9912 2.67577 19.0112 3.82744 16.2308C4.97911 13.4504 6.66714 10.9241 8.79515 8.79612C10.9232 6.66811 13.4495 4.98008 16.2298 3.82841C19.0102 2.67674 21.9902 2.08398 24.9997 2.08398H108.333ZM24.9997 14.584C19.2497 14.584 14.583 19.2506 14.583 25.0007V108.334C14.583 114.084 19.2497 118.751 24.9997 118.751H108.333C114.083 118.751 118.75 114.084 118.75 108.334V25.0007C118.75 19.2506 114.083 14.584 108.333 14.584H24.9997Z" fill="black"/>
<path id="Vector_2" d="M28.9165 62.2507C30.0884 61.0803 31.6769 60.4229 33.3331 60.4229C34.9894 60.4229 36.5779 61.0803 37.7498 62.2507L54.4165 78.9173C55.5869 80.0892 56.2443 81.6778 56.2443 83.334C56.2443 84.9903 55.5869 86.5788 54.4165 87.7507L37.7498 104.417C37.1776 105.031 36.4876 105.524 35.721 105.866C34.9543 106.207 34.1267 106.391 33.2875 106.406C32.4483 106.42 31.6147 106.266 30.8365 105.952C30.0583 105.637 29.3513 105.169 28.7578 104.576C28.1643 103.983 27.6965 103.276 27.3821 102.497C27.0678 101.719 26.9134 100.886 26.9282 100.046C26.943 99.2071 27.1267 98.3795 27.4683 97.6129C27.8099 96.8462 28.3024 96.1562 28.9165 95.584L41.1665 83.334L28.9165 71.084C27.858 70.0258 27.2144 68.6228 27.1028 67.1303C26.9912 65.6377 27.4189 64.1546 28.3081 62.9507L28.9165 62.2507ZM79.1665 93.7507C80.8241 93.7507 82.4138 94.4092 83.5859 95.5813C84.758 96.7534 85.4165 98.3431 85.4165 100.001C85.4165 101.658 84.758 103.248 83.5859 104.42C82.4138 105.592 80.8241 106.251 79.1665 106.251H58.3331C56.6755 106.251 55.0858 105.592 53.9137 104.42C52.7416 103.248 52.0831 101.658 52.0831 100.001C52.0831 98.3431 52.7416 96.7534 53.9137 95.5813C55.0858 94.4092 56.6755 93.7507 58.3331 93.7507H79.1665Z" fill="black"/>
</g>
</svg>
